<?xml version="1.0" encoding="utf-8"?>
<!-- Generator: Adobe Illustrator 21.0.2, SVG Export Plug-In . SVG Version: 6.00 Build 0)  -->
<svg version="1.1" id="DESIGN" xmlns="http://www.w3.org/2000/svg" xmlns:xlink="http://www.w3.org/1999/xlink" x="0px" y="0px"
	 viewBox="0 0 900 450" style="enable-background:new 0 0 900 450;" xml:space="preserve">
<style type="text/css">
	.st0{fill:url(#SVGID_1_);}
	.st1{fill:url(#SVGID_2_);}
	.st2{fill:url(#SVGID_3_);}
	.st3{fill:url(#SVGID_4_);}
	.st4{fill:url(#SVGID_5_);}
	.st5{fill:#666666;}
	.st6{fill:url(#SVGID_6_);}
	.st7{fill:url(#SVGID_7_);}
	.st8{fill:url(#SVGID_8_);}
	.st9{fill:url(#SVGID_9_);}
	.st10{fill:url(#SVGID_10_);}
	.st11{opacity:0.3;fill:url(#SVGID_11_);enable-background:new    ;}
	.st12{fill:url(#SVGID_12_);}
	.st13{fill:#FFFFFF;}
	.st14{fill:url(#SVGID_13_);}
	.st15{fill:url(#SVGID_14_);}
	.st16{fill:url(#SVGID_15_);}
	.st17{fill:url(#SVGID_16_);}
</style>
<g id="LOGO_1_">
</g>
<g id="Calque_16">
	<g id="Calque_431">
	</g>
	<g id="Calque_430">
	</g>
	<g id="Calque_429">
	</g>
	<g id="Calque_428">
	</g>
	<g id="Calque_427">
	</g>
	<g id="Calque_426">
	</g>
	<g id="Calque_425">
	</g>
	<g id="Calque_424">
	</g>
	<g id="Calque_423">
	</g>
	<g id="Calque_422">
	</g>
	<g id="Calque_421">
	</g>
	<g id="Calque_420">
	</g>
	<g id="Calque_419">
	</g>
	<g id="Calque_418">
	</g>
	<g id="Calque_417">
	</g>
	<g id="Calque_416">
	</g>
	<g id="Calque_415">
	</g>
	<g id="Calque_414">
	</g>
	<g id="Calque_413">
	</g>
	<g id="Calque_412">
	</g>
	<g id="Calque_411">
	</g>
	<g id="Calque_410">
	</g>
	<g id="Calque_409">
	</g>
	<g id="Calque_408">
	</g>
	<g id="Calque_407">
	</g>
	<g id="Calque_406">
	</g>
	<g id="Calque_405">
	</g>
	<g id="Calque_404">
	</g>
	<g id="Calque_403">
	</g>
	<g id="Calque_402">
	</g>
	<g id="Calque_401">
	</g>
	<g id="Calque_400">
	</g>
	<g id="Calque_399">
	</g>
	<g id="Calque_398">
	</g>
	<g id="Calque_397">
	</g>
	<g id="Calque_396">
	</g>
	<g id="Calque_395">
	</g>
	<g id="Calque_394">
	</g>
	<g id="Calque_393">
	</g>
	<g id="Calque_392">
	</g>
	<g id="Calque_391">
	</g>
	<g id="Calque_390">
	</g>
	<g id="Calque_389">
	</g>
	<g id="Calque_388">
	</g>
	<g id="Calque_387">
	</g>
	<g id="Calque_386">
	</g>
	<g id="Calque_385">
	</g>
	<g id="Calque_384">
	</g>
	<g id="Calque_383">
	</g>
	<g id="Calque_382">
	</g>
	<g id="Calque_381">
	</g>
	<g id="Calque_380">
	</g>
	<g id="Calque_379">
	</g>
	<g id="Calque_378">
	</g>
	<g id="Calque_377">
	</g>
	<g id="Calque_376">
	</g>
	<g id="Calque_375">
	</g>
	<g id="Calque_374">
	</g>
	<g id="Calque_373">
	</g>
	<g id="Calque_372">
	</g>
	<g id="Calque_371">
	</g>
	<g id="Calque_370">
	</g>
	<g id="Calque_369">
	</g>
	<g id="Calque_368">
	</g>
	<g id="Calque_367">
	</g>
	<g id="Calque_366">
	</g>
	<g id="Calque_365">
	</g>
	<g id="Calque_364">
	</g>
	<g id="Calque_363">
	</g>
	<g id="Calque_362">
	</g>
	<g id="Calque_361">
	</g>
	<g id="Calque_360">
	</g>
	<g id="Calque_359">
	</g>
	<g id="Calque_358">
	</g>
	<g id="Calque_357">
	</g>
	<g id="Calque_356">
	</g>
	<g id="Calque_355">
	</g>
	<g id="Calque_354">
	</g>
	<g id="Calque_353">
	</g>
	<g id="Calque_352">
	</g>
	<g id="Calque_351">
	</g>
	<g id="Calque_350">
	</g>
	<g id="Calque_349">
	</g>
	<g id="Calque_348">
	</g>
	<g id="Calque_347">
	</g>
	<g id="Calque_346">
	</g>
	<g id="Calque_345">
	</g>
	<g id="Calque_344">
	</g>
	<g id="Calque_343">
	</g>
	<g id="Calque_342">
	</g>
	<g id="Calque_341">
	</g>
	<g id="Calque_340">
	</g>
	<g id="Calque_339">
	</g>
	<g id="Calque_338">
	</g>
	<g id="Calque_337">
	</g>
	<g id="Calque_336">
	</g>
	<g id="Calque_335">
	</g>
	<g id="Calque_334">
	</g>
	<g id="Calque_333">
	</g>
	<g id="Calque_332">
	</g>
	<g id="Calque_331">
	</g>
	<g id="Calque_330">
	</g>
	<g id="Calque_329">
	</g>
	<g id="Calque_328">
	</g>
	<g id="Calque_327">
	</g>
	<g id="Calque_326">
	</g>
	<g id="Calque_325">
	</g>
	<g id="Calque_324">
	</g>
	<g id="Calque_323">
	</g>
	<g id="Calque_322">
	</g>
	<g id="Calque_321">
	</g>
	<g id="Calque_320">
	</g>
	<g id="Calque_319">
	</g>
	<g id="Calque_318">
	</g>
	<g id="Calque_317">
	</g>
	<g id="Calque_316">
	</g>
	<g id="Calque_315">
	</g>
	<g id="Calque_314">
	</g>
	<g id="Calque_313">
	</g>
	<g id="Calque_312">
	</g>
	<g id="Calque_311">
	</g>
	<g id="Calque_310">
	</g>
	<g id="Calque_309">
	</g>
	<g id="Calque_308">
	</g>
	<g id="Calque_307">
	</g>
	<g id="Calque_306">
	</g>
	<g id="Calque_305">
	</g>
	<g id="Calque_304">
	</g>
	<g id="Calque_303">
	</g>
	<g id="Calque_302">
	</g>
	<g id="Calque_301">
	</g>
	<g id="Calque_300">
	</g>
	<g id="Calque_299">
	</g>
	<g id="Calque_298">
	</g>
	<g id="Calque_297">
	</g>
	<g id="Calque_296">
	</g>
	<g id="Calque_295">
	</g>
	<g id="Calque_294">
	</g>
	<g id="Calque_293">
	</g>
	<g id="Calque_292">
	</g>
	<g id="Calque_291">
	</g>
	<g id="Calque_290">
	</g>
	<g id="Calque_289">
	</g>
	<g id="Calque_288">
	</g>
	<g id="Calque_287">
	</g>
	<g id="Calque_286">
	</g>
	<g id="Calque_285">
	</g>
	<g id="Calque_284">
	</g>
	<g id="Calque_283">
	</g>
	<g id="Calque_282">
	</g>
	<g id="Calque_281">
	</g>
	<g id="Calque_280">
	</g>
	<g id="Calque_279">
	</g>
	<g id="Calque_278">
	</g>
	<g id="Calque_277">
	</g>
	<g id="Calque_276">
	</g>
	<g id="Calque_275">
	</g>
	<g id="Calque_274">
	</g>
	<g id="Calque_273">
	</g>
	<g id="Calque_272">
	</g>
	<g id="Calque_271">
	</g>
	<g id="Calque_270">
	</g>
	<g id="Calque_269">
	</g>
	<g id="Calque_268">
	</g>
	<g id="Calque_267">
	</g>
	<g id="Calque_266">
	</g>
	<g id="Calque_265">
	</g>
	<g id="Calque_264">
	</g>
	<g id="Calque_263">
	</g>
	<g id="Calque_262">
	</g>
	<g id="Calque_261">
	</g>
	<g id="Calque_260">
	</g>
	<g id="Calque_259">
	</g>
	<g id="Calque_258">
	</g>
	<g id="Calque_257">
	</g>
	<g id="Calque_256">
	</g>
	<g id="Calque_255">
	</g>
	<g id="Calque_254">
	</g>
	<g id="Calque_253">
	</g>
	<g id="Calque_252">
	</g>
	<g id="Calque_251">
	</g>
	<g id="Calque_250">
	</g>
	<g id="Calque_249">
	</g>
	<g id="Calque_248">
	</g>
	<g id="Calque_247">
	</g>
	<g id="Calque_246">
	</g>
	<g id="Calque_245">
	</g>
	<g id="Calque_244">
	</g>
	<g id="Calque_243">
	</g>
	<g id="Calque_242">
	</g>
	<g id="Calque_241">
	</g>
	<g id="Calque_240">
	</g>
	<g id="Calque_239">
	</g>
	<g id="Calque_238">
	</g>
	<g id="Calque_237">
	</g>
	<g id="Calque_236">
	</g>
	<g id="Calque_235">
	</g>
	<g id="Calque_234">
	</g>
	<g id="Calque_233">
	</g>
	<g id="Calque_232">
	</g>
	<g id="Calque_231">
	</g>
	<g id="Calque_230">
	</g>
	<g id="Calque_229">
	</g>
	<g id="Calque_228">
	</g>
	<g id="Calque_227">
	</g>
	<g id="Calque_226">
	</g>
	<g id="Calque_225">
	</g>
	<g id="Calque_224">
	</g>
	<g id="Calque_223">
	</g>
	<g id="Calque_222">
	</g>
	<g id="Calque_221">
	</g>
	<g id="Calque_220">
	</g>
	<g id="Calque_219">
	</g>
	<g id="Calque_218">
	</g>
	<g id="Calque_217">
	</g>
	<g id="Calque_216">
	</g>
	<g id="Calque_215">
	</g>
	<g id="Calque_214">
	</g>
	<g id="Calque_213">
	</g>
	<g id="Calque_212">
	</g>
	<g id="Calque_211">
	</g>
	<g id="Calque_210">
	</g>
	<g id="Calque_209">
	</g>
	<g id="Calque_208">
	</g>
	<g id="Calque_207">
	</g>
	<g id="Calque_206">
	</g>
	<g id="Calque_205">
	</g>
	<g id="Calque_204">
	</g>
	<g id="Calque_203">
	</g>
	<g id="Calque_202">
	</g>
	<g id="Calque_201">
	</g>
	<g id="Calque_200">
	</g>
	<g id="Calque_199">
	</g>
	<g id="Calque_198">
	</g>
	<g id="Calque_197">
	</g>
	<g id="Calque_196">
	</g>
	<g id="Calque_195">
	</g>
	<g id="Calque_194">
	</g>
	<g id="Calque_193">
	</g>
	<g id="Calque_192">
	</g>
	<g id="Calque_191">
	</g>
	<g id="Calque_190">
	</g>
	<g id="Calque_189">
	</g>
	<g id="Calque_188">
	</g>
	<g id="Calque_187">
	</g>
	<g id="Calque_186">
	</g>
	<g id="Calque_185">
	</g>
	<g id="Calque_184">
	</g>
	<g id="Calque_183">
	</g>
	<g id="Calque_182">
	</g>
	<g id="Calque_181">
	</g>
	<g id="Calque_180">
	</g>
	<g id="Calque_179">
	</g>
	<g id="Calque_178">
	</g>
	<g id="Calque_177">
	</g>
	<g id="Calque_176">
	</g>
	<g id="Calque_175">
	</g>
	<g id="Calque_174">
	</g>
	<g id="Calque_173">
	</g>
	<g id="Calque_172">
	</g>
	<g id="Calque_171">
	</g>
	<g id="Calque_170">
	</g>
	<g id="Calque_169">
	</g>
	<g id="Calque_168">
	</g>
	<g id="Calque_167">
	</g>
	<g id="Calque_166">
	</g>
	<g id="Calque_165">
	</g>
	<g id="Calque_164">
	</g>
	<g id="Calque_163">
	</g>
	<g id="Calque_162">
	</g>
	<g id="Calque_161">
	</g>
	<g id="Calque_160">
	</g>
	<g id="Calque_159">
	</g>
	<g id="Calque_158">
	</g>
	<g id="Calque_157">
	</g>
	<g id="Calque_156">
	</g>
	<g id="Calque_155">
	</g>
	<g id="Calque_154">
	</g>
	<g id="Calque_153">
	</g>
	<g id="Calque_152">
	</g>
	<g id="Calque_151">
	</g>
	<g id="Calque_150">
	</g>
	<g id="Calque_149">
	</g>
	<g id="Calque_148">
	</g>
	<g id="Calque_147">
	</g>
	<g id="Calque_146">
	</g>
	<g id="Calque_145">
	</g>
	<g id="Calque_144">
	</g>
	<g id="Calque_143">
	</g>
	<g id="Calque_142">
	</g>
	<g id="Calque_141">
	</g>
	<g id="Calque_140">
	</g>
	<g id="Calque_139">
	</g>
	<g id="Calque_138">
	</g>
	<g id="Calque_137">
	</g>
	<g id="Calque_136">
	</g>
	<g id="Calque_135">
	</g>
	<g id="Calque_134">
	</g>
	<g id="Calque_133">
	</g>
	<g id="Calque_132">
	</g>
	<g id="Calque_131">
	</g>
	<g id="Calque_130">
	</g>
	<g id="Calque_129">
	</g>
	<g id="Calque_128">
	</g>
	<g id="Calque_127">
	</g>
	<g id="Calque_126">
	</g>
	<g id="Calque_125">
	</g>
	<g id="Calque_124">
	</g>
	<g id="Calque_123">
	</g>
	<g id="Calque_122">
	</g>
	<g id="Calque_121">
	</g>
	<g id="Calque_120">
	</g>
	<g id="Calque_119">
	</g>
	<g id="Calque_118">
	</g>
	<g id="Calque_117">
	</g>
	<g id="Calque_116">
	</g>
	<g id="Calque_115">
	</g>
	<g id="Calque_114">
	</g>
	<g id="Calque_113">
	</g>
	<g id="Calque_112">
	</g>
	<g id="Calque_111">
	</g>
	<g id="Calque_110">
	</g>
	<g id="Calque_109">
	</g>
	<g id="Calque_108">
	</g>
	<g id="Calque_107">
	</g>
	<g id="Calque_106">
	</g>
	<g id="Calque_105">
	</g>
	<g id="Calque_104">
	</g>
	<g id="Calque_103">
	</g>
	<g id="Calque_102">
	</g>
	<g id="Calque_101">
	</g>
	<g id="Calque_100">
	</g>
	<g id="Calque_99">
	</g>
	<g id="Calque_98">
	</g>
	<g id="Calque_97">
	</g>
	<g id="Calque_96">
	</g>
	<g id="Calque_95">
	</g>
	<g id="Calque_94">
	</g>
	<g id="Calque_93">
	</g>
	<g id="Calque_92">
	</g>
	<g id="Calque_91">
	</g>
	<g id="Calque_90">
	</g>
	<g id="Calque_89">
	</g>
	<g id="Calque_88">
	</g>
	<g id="Calque_87">
	</g>
	<g id="Calque_86">
	</g>
	<g id="Calque_85">
	</g>
	<g id="Calque_84">
	</g>
	<g id="Calque_83">
	</g>
	<g id="Calque_82">
	</g>
	<g id="Calque_81">
	</g>
	<g id="Calque_80">
	</g>
	<g id="Calque_79">
	</g>
	<g id="Calque_78">
	</g>
	<g id="Calque_77">
	</g>
	<g id="Calque_76">
	</g>
	<g id="Calque_75">
	</g>
	<g id="Calque_74">
	</g>
	<g id="Calque_73">
	</g>
	<g id="Calque_72">
	</g>
	<g id="Calque_71">
	</g>
	<g id="Calque_70">
	</g>
	<g id="Calque_69">
	</g>
	<g id="Calque_68">
	</g>
	<g id="Calque_67">
	</g>
	<g id="Calque_66">
	</g>
	<g id="Calque_65">
	</g>
	<g id="Calque_64">
	</g>
	<g id="Calque_63">
	</g>
	<g id="Calque_62">
	</g>
	<g id="Calque_61">
	</g>
	<g id="Calque_60">
	</g>
	<g id="Calque_59">
	</g>
	<g id="Calque_58">
	</g>
	<g id="Calque_57">
	</g>
	<g id="Calque_56">
	</g>
	<g id="Calque_55">
	</g>
	<g id="Calque_54">
	</g>
	<g id="Calque_53">
	</g>
	<g id="Calque_52">
	</g>
	<g id="Calque_51">
	</g>
	<g id="Calque_50">
	</g>
	<g id="Calque_49">
	</g>
	<g id="Calque_48">
	</g>
	<g id="Calque_47">
	</g>
	<g id="Calque_46">
	</g>
	<g id="Calque_45">
	</g>
	<g id="Calque_44">
	</g>
	<g id="Calque_43">
	</g>
	<g id="Calque_42">
	</g>
	<g id="Calque_41">
	</g>
	<g id="Calque_40">
	</g>
	<g id="Calque_39">
	</g>
	<g id="Calque_38">
	</g>
	<g id="Calque_37">
	</g>
	<g id="Calque_36">
	</g>
	<g id="Calque_35">
	</g>
	<g id="Calque_34">
	</g>
	<g id="Calque_33">
	</g>
	<g id="Calque_32">
	</g>
	<g id="Calque_31">
	</g>
	<g id="Calque_30">
	</g>
	<g id="Calque_29">
	</g>
	<g id="Calque_28">
	</g>
	<g id="Calque_27">
	</g>
	<g id="Calque_26">
	</g>
	<g id="Calque_25">
	</g>
	<g id="Calque_24">
	</g>
	<g id="Calque_23">
	</g>
	<g id="Calque_22">
	</g>
	<g id="Calque_21">
	</g>
	<g id="Calque_20">
	</g>
	<g id="Calque_19">
	</g>
	<g id="Calque_18">
	</g>
	<g id="Calque_17">
	</g>
</g>
<g id="NEW_CRABE">
	<g id="DRAPE_DEMI_2">
	</g>
</g>
<g id="new_x5F_brasdroit">
	<g id="new_x5F_plateau">
		<g id="SANDWICH">
			<g id="ETIQUETTE">
			</g>
		</g>
		<g id="BOKIT">
		</g>
		<g id="BOX">
		</g>
	</g>
</g>
<g id="new_x5F_toque">
	<g id="Calque_50_79_">
	</g>
	<g id="Calque_51_80_">
	</g>
</g>
<g id="new_pince_complete">
	<g id="cocktail">
		<g id="parapluie">
		</g>
		<g id="CITRON">
		</g>
	</g>
</g>
<g id="ne_x5F_tablier">
	<g id="Calque_50_96_">
	</g>
	<g id="Calque_56_110_">
	</g>
</g>
<g id="new_x5F_tete">
	<g id="new_x5F_oeil">
		<g id="new_x5F_pupille">
		</g>
		<g id="Calque_63_101_">
		</g>
	</g>
	<g id="new_x5F_pupille_1_">
	</g>
	<g id="new_x5F_bouche">
		<g id="Calque_51_98_">
		</g>
		<g id="Calque_64_51_">
		</g>
	</g>
</g>
<g id="RUBAN_2">
</g>
<g>
	
		<linearGradient id="SVGID_1_" gradientUnits="userSpaceOnUse" x1="214.5" y1="755.3179" x2="214.5" y2="687.2179" gradientTransform="matrix(1 0 0 1 0 -392)">
		<stop  offset="2.941176e-02" style="stop-color:#BCB6B4"/>
		<stop  offset="0.701" style="stop-color:#D1C8C5"/>
	</linearGradient>
	<path class="st0" d="M232.8,340.1c0,9.7-3.1,14.9-4.6,17c-1.6,2-5.9,6.3-13.4,6.3c-1.3,0-18.6,0-18.6,0v-64.9l5.6-3.2v30.1
		c1.3-1.4,6-7.4,14.2-7.4C228.4,318,232.8,328.4,232.8,340.1z M227.1,341c0-12.8-4.9-18.3-11.6-18.3c-7.2,0-12.4,7.3-13.7,8.9v26.8
		h13.4c0,0,3.9-0.5,5.5-1.5C222.2,356,227.1,351.9,227.1,341z"/>
	
		<linearGradient id="SVGID_2_" gradientUnits="userSpaceOnUse" x1="269.1666" y1="755.3031" x2="269.1666" y2="710.0434" gradientTransform="matrix(1 0 0 1 0 -392)">
		<stop  offset="2.941176e-02" style="stop-color:#BCB6B4"/>
		<stop  offset="0.701" style="stop-color:#D1C8C5"/>
	</linearGradient>
	<path class="st1" d="M276,341l-8.6-4.3c0,0-7.2-3.3-5.2-9.3c1.9-5.3,8.4-5.5,12.9-3.8c0.8-0.4,5.3-2.6,5.3-2.6
		c-3-2.1-9.3-4-15.3-2.3c-2.3,0.6-7.8,3.1-8.6,10.2c-0.6,5.6,3.6,9.8,7.6,11.7l6.1,3c7,3.1,7.1,7.5,5.5,11
		c-2.5,5.3-11.2,3.8-13.5,3.1l-6,3c0.5,0.3,4.9,2.7,11.9,2.6c6.9-0.2,13.5-3.1,14-11.8C282.6,344.6,277.3,341.7,276,341z"/>
	
		<linearGradient id="SVGID_3_" gradientUnits="userSpaceOnUse" x1="384.25" y1="755.3961" x2="384.25" y2="687.4833" gradientTransform="matrix(1 0 0 1 0 -392)">
		<stop  offset="2.941176e-02" style="stop-color:#BCB6B4"/>
		<stop  offset="0.701" style="stop-color:#D1C8C5"/>
	</linearGradient>
	<path class="st2" d="M387.1,362.1c0,0.2-0.1,0.4-0.2,0.5s-0.2,0.3-0.5,0.4c-0.2,0.1-0.5,0.2-0.9,0.2c-0.4,0.1-0.8,0.1-1.3,0.1
		s-0.9,0-1.3-0.1s-0.6-0.2-0.9-0.2c-0.2-0.1-0.4-0.2-0.5-0.4s-0.1-0.3-0.1-0.5v-63.5l5.5-3.1L387.1,362.1L387.1,362.1z"/>
	
		<linearGradient id="SVGID_4_" gradientUnits="userSpaceOnUse" x1="438.55" y1="755.3" x2="438.55" y2="709.8" gradientTransform="matrix(1 0 0 1 0 -392)">
		<stop  offset="2.941176e-02" style="stop-color:#BCB6B4"/>
		<stop  offset="0.701" style="stop-color:#D1C8C5"/>
	</linearGradient>
	<path class="st3" d="M455.4,363.3H436c-4.4,0-8.7-1.4-11.7-5.2c-3-3.8-3.3-10.3-3.3-13.3v-25.7c0-0.2,0.1-0.4,0.2-0.5
		s0.2-0.3,0.5-0.4c0.2-0.1,0.5-0.2,0.9-0.2c0.4-0.1,0.8-0.1,1.3-0.1s1,0,1.4,0.1s0.6,0.2,0.9,0.2c0.2,0.1,0.3,0.2,0.5,0.4
		c0.1,0.2,0.2,0.3,0.2,0.5v25.1c0,2.7,0.3,7.9,2.4,10.6c2.1,2.8,4.5,3.5,7.6,3.5c2.2,0,13.3,0,13.3,0V319c0-0.2,0.1-0.4,0.2-0.5
		s0.2-0.3,0.5-0.4c0.2-0.1,0.5-0.2,0.9-0.2c0.4-0.1,0.8-0.1,1.4-0.1c0.5,0,0.9,0,1.3,0.1s0.6,0.2,0.9,0.2c0.2,0.1,0.3,0.2,0.5,0.4
		c0.1,0.2,0.2,0.3,0.2,0.5v44.2L455.4,363.3L455.4,363.3z"/>
	
		<linearGradient id="SVGID_5_" gradientUnits="userSpaceOnUse" x1="555.35" y1="755.3" x2="555.35" y2="709.9265" gradientTransform="matrix(1 0 0 1 0 -392)">
		<stop  offset="2.941176e-02" style="stop-color:#BCB6B4"/>
		<stop  offset="0.701" style="stop-color:#D1C8C5"/>
	</linearGradient>
	<path class="st4" d="M546,353.8c-3.8-4.8-3.3-12.4-3.3-12.4h28.6c1.3,0,2.6-1,2.6-3.3c0-6.1-1.9-20.1-17.7-20.1
		c-2.9,0-19.4,0.5-19.4,22.7c0,22.3,16.7,22.6,16.7,22.6l8.3-4.8l-6.2-0.1C555.6,358.4,549.5,358.2,546,353.8z M555.7,322.6
		c13.6,0,12.4,14.2,12.4,14.2h-25.4C542.7,336.8,542.9,322.6,555.7,322.6z"/>
	<path class="st5" d="M740.5,351.4c-3.8-4.8-3.3-12.4-3.3-12.4h28.6c1.3,0,2.6-1,2.6-3.3c0-6.1-1.9-20.1-17.7-20.1
		c-2.9,0-19.4,0.5-19.4,22.7c0,22.3,16.7,22.6,16.7,22.6l8.3-4.8l-6.2-0.1C750.2,356,744.1,355.8,740.5,351.4z M750.4,320.3
		c13.6,0,12.4,14.2,12.4,14.2h-25.4C737.3,334.4,737.6,320.3,750.4,320.3z"/>
	
		<linearGradient id="SVGID_6_" gradientUnits="userSpaceOnUse" x1="330.1" y1="755.4" x2="330.1" y2="710" gradientTransform="matrix(1 0 0 1 0 -392)">
		<stop  offset="2.941176e-02" style="stop-color:#BCB6B4"/>
		<stop  offset="0.701" style="stop-color:#D1C8C5"/>
	</linearGradient>
	<path class="st6" d="M330.1,318c-12.5,0-22.7,10.2-22.7,22.7s10.2,22.7,22.7,22.7s22.7-10.2,22.7-22.7S342.6,318,330.1,318z
		 M347.5,340.7c0,9.6-7.8,17.4-17.4,17.4s-17.4-7.8-17.4-17.4s7.8-17.4,17.4-17.4C339.7,323.3,347.5,331.1,347.5,340.7z"/>
	
		<linearGradient id="SVGID_7_" gradientUnits="userSpaceOnUse" x1="147.6" y1="755.3201" x2="147.6" y2="712.3638" gradientTransform="matrix(1 0 0 1 0 -392)">
		<stop  offset="2.941176e-02" style="stop-color:#BCB6B4"/>
		<stop  offset="0.701" style="stop-color:#D1C8C5"/>
	</linearGradient>
	<path class="st7" d="M157.8,328.9c0.5,2,0.5,3.9,0.5,3.9v4.5h-6.7c-4.2,0-20.1-0.1-20.1,13.8c0,12.8,13.9,12.3,17.8,12.3
		c1.6,0,14.4,0,14.4,0v-30c0-2.4-0.3-4.5-0.8-6.5c-1.2-4.6-4.6-6.4-4.6-6.4l-5.4,3.1C154.3,324,156.9,325.3,157.8,328.9z
		 M158.4,358.5c0,0-5.6,0-8.3,0c-5.2,0-12.6,0.4-12.6-7.8c0-8.8,10.4-8.6,13.3-8.6c2.9,0,7.7,0,7.7,0L158.4,358.5L158.4,358.5z"/>
	<path class="st5" d="M655.6,326.5c0.5,2,0.5,3.9,0.5,3.9v4.5h-6.7c-4.2,0-20.1-0.1-20.1,13.8c0,12.8,13.9,12.3,17.8,12.3
		c1.6,0,14.4,0,14.4,0v-30c0-2.4-0.3-4.5-0.8-6.5c-1.2-4.6-4.6-6.4-4.6-6.4l-5.4,3.1C652.1,321.6,654.7,322.9,655.6,326.5z
		 M656.1,356.1c0,0-5.6,0-8.3,0c-5.2,0-12.6,0.4-12.6-7.8c0-8.8,10.4-8.6,13.3-8.6s7.7,0,7.7,0L656.1,356.1L656.1,356.1z"/>
	
		<linearGradient id="SVGID_8_" gradientUnits="userSpaceOnUse" x1="495.8" y1="755.3179" x2="495.8" y2="702.7179" gradientTransform="matrix(1 0 0 1 0 -392)">
		<stop  offset="2.941176e-02" style="stop-color:#BCB6B4"/>
		<stop  offset="0.701" style="stop-color:#D1C8C5"/>
	</linearGradient>
	<path class="st8" d="M490.3,314v3.9H484c-0.2,0-1.4,0.1-1.4,2.4s0.9,2.3,1.4,2.3h6.3v26.5c0,2.4,0.2,4.5,0.6,6.2s1.1,3.2,2,4.4
		c0.9,1.2,2.1,2,3.6,2.6c1.5,0.5,3.3,0.9,5.4,0.9c0.6,0,7.1,0,7.1,0c0-0.4,0-4.8,0-4.8s-5.9,0-6.7,0c-2.4,0-4.1-0.9-5.1-2.7
		c-0.9-1.7-1.4-4.1-1.4-7.4v-25.7H509v-4.8h-13.2v-7.2L490.3,314z"/>
	<path class="st5" d="M701,320.3c5.9,0,9,2.7,10.6,5.7l4.5-2.6c-2.4-4.3-6.9-7.8-14.8-7.8c-2.9,0-19.4,0.5-19.4,22.7
		c0,22.3,16.7,22.6,16.7,22.6l8.3-4.8l-6.2-0.1c0,0-6-0.3-9.7-4.6C684.5,343.4,685.5,320.2,701,320.3z"/>
	<g>
		
			<image style="overflow:visible;opacity:0.2;enable-background:new    ;" width="190" height="217" xlink:href="242757DF.png"  transform="matrix(0.7786 0 0 0.7786 381.504 77.2126)">
		</image>
		<g>
			<g>
				<g>
					
						<linearGradient id="SVGID_9_" gradientUnits="userSpaceOnUse" x1="450.7" y1="509.3" x2="450.7" y2="509.3" gradientTransform="matrix(1 0 0 1 0 -392)">
						<stop  offset="0" style="stop-color:#FDC632"/>
						<stop  offset="0.5101" style="stop-color:#F28E00"/>
						<stop  offset="1" style="stop-color:#CA1012"/>
					</linearGradient>
					<path class="st9" d="M450.7,117.3L450.7,117.3L450.7,117.3z"/>
				</g>
				<g>
					
						<linearGradient id="SVGID_10_" gradientUnits="userSpaceOnUse" x1="213.8733" y1="400.6952" x2="260.4262" y2="400.6952" gradientTransform="matrix(-0.5055 -0.8628 -0.8628 0.5055 900.66 128.5503)">
						<stop  offset="0" style="stop-color:#FDC632"/>
						<stop  offset="0.5101" style="stop-color:#F28E00"/>
						<stop  offset="1" style="stop-color:#CA1012"/>
					</linearGradient>
					<path class="st10" d="M450.7,117.3c1.3,13.5-7.3,30-15.7,36.1c-5.7-15.3-15-29.2-27.4-37.9C421.8,111.4,437.1,112,450.7,117.3z
						"/>
					
						<linearGradient id="SVGID_11_" gradientUnits="userSpaceOnUse" x1="201.4819" y1="374.0618" x2="299.8632" y2="472.4431" gradientTransform="matrix(-0.5055 -0.8628 -0.8628 0.5055 900.66 128.5503)">
						<stop  offset="0.5196" style="stop-color:#F28E00"/>
						<stop  offset="0.9461" style="stop-color:#FEDE88"/>
					</linearGradient>
					<path class="st11" d="M450.7,117.3c1.3,13.5-7.3,30-15.7,36.1c-5.7-15.3-15-29.2-27.4-37.9C421.8,111.4,437.1,112,450.7,117.3z
						"/>
				</g>
				
					<linearGradient id="SVGID_12_" gradientUnits="userSpaceOnUse" x1="319.7402" y1="533.7263" x2="480.3167" y2="442.5883" gradientTransform="matrix(0.9999 1.498630e-02 -1.498630e-02 0.9999 12.3445 -389.433)">
					<stop  offset="0" style="stop-color:#FDC632"/>
					<stop  offset="0.5101" style="stop-color:#F28E00"/>
					<stop  offset="1" style="stop-color:#CA1012"/>
				</linearGradient>
				<path class="st12" d="M450.7,117.3L450.7,117.3c-13.8-5.3-28.9-6-43.1-1.9c-8.5,2.5-16.7,6.7-23.9,12.8l-0.2-49.4L450.7,117.3z"
					/>
				<g>
					<path class="st13" d="M383.7,160.5c11-7.8,29.7-8.7,39.1-4.5c-10.4,12.6-17.8,27.6-19.2,42.7
						C392.9,188.5,385.9,175.1,383.7,160.5z"/>
					
						<linearGradient id="SVGID_13_" gradientUnits="userSpaceOnUse" x1="397.2921" y1="544.5106" x2="418.9124" y2="581.9578" gradientTransform="matrix(1 0 0 1 0 -392)">
						<stop  offset="0" style="stop-color:#FDC632"/>
						<stop  offset="0.5101" style="stop-color:#F28E00"/>
						<stop  offset="1" style="stop-color:#CA1012"/>
					</linearGradient>
					<path class="st14" d="M383.7,160.5c11-7.8,29.7-8.7,39.1-4.5c-10.4,12.6-17.8,27.6-19.2,42.7
						C392.9,188.5,385.9,175.1,383.7,160.5z"/>
				</g>
				
					<linearGradient id="SVGID_14_" gradientUnits="userSpaceOnUse" x1="355.6396" y1="596.9777" x2="516.2161" y2="505.8397" gradientTransform="matrix(0.9999 1.498630e-02 -1.498630e-02 0.9999 12.3445 -389.433)">
					<stop  offset="0" style="stop-color:#FDC632"/>
					<stop  offset="0.5101" style="stop-color:#F28E00"/>
					<stop  offset="1" style="stop-color:#CA1012"/>
				</linearGradient>
				<path class="st15" d="M383.7,160.5L383.7,160.5c2.3,14.6,9.3,28.1,20,38.3c6.4,6.2,14.2,11.1,23,14.3L384,237.9L383.7,160.5z"/>
				<g>
					<path class="st13" d="M454.4,196.5c-12.3-5.6-22.4-21.4-23.4-31.7c16.1,2.7,32.8,1.6,46.6-4.7
						C474.1,174.4,465.9,187.3,454.4,196.5z"/>
					
						<linearGradient id="SVGID_15_" gradientUnits="userSpaceOnUse" x1="431" y1="570.3" x2="477.5532" y2="570.3" gradientTransform="matrix(1 0 0 1 0 -392)">
						<stop  offset="0" style="stop-color:#FDC632"/>
						<stop  offset="0.5101" style="stop-color:#F28E00"/>
						<stop  offset="1" style="stop-color:#CA1012"/>
					</linearGradient>
					<path class="st16" d="M454.4,196.5c-12.3-5.6-22.4-21.4-23.4-31.7c16.1,2.7,32.8,1.6,46.6-4.7
						C474.1,174.4,465.9,187.3,454.4,196.5z"/>
				</g>
				
					<linearGradient id="SVGID_16_" gradientUnits="userSpaceOnUse" x1="360.3182" y1="605.2209" x2="520.8947" y2="514.0829" gradientTransform="matrix(0.9999 1.498630e-02 -1.498630e-02 0.9999 12.3445 -389.433)">
					<stop  offset="0" style="stop-color:#FDC632"/>
					<stop  offset="0.5101" style="stop-color:#F28E00"/>
					<stop  offset="1" style="stop-color:#CA1012"/>
				</linearGradient>
				<path class="st17" d="M454.4,196.5L454.4,196.5c11.5-9.2,19.6-22.1,23.2-36.4c2.1-8.7,2.5-17.8,0.9-27.1l42.9,24.6L454.4,196.5z
					"/>
			</g>
		</g>
	</g>
</g>
</svg>
